<?xml version="1.0" encoding="utf-8" ?>
<!-- Generator: Adobe Illustrator 27.0.0, SVG Export Plug-In . SVG Version: 6.00 Build 0)  -->
<svg
  version="1.1"
  id="Layer_1"
  xmlns="http://www.w3.org/2000/svg"
  xmlns:xlink="http://www.w3.org/1999/xlink"
  x="0px"
  y="0px"
  viewBox="0 0 480 480"
  style="enable-background:new 0 0 480 480;"
  xml:space="preserve"
>
<style type="text/css">
.st0 {
  fill: #04994e;
}
  </style>
<path class="st0" d="M72,32h16v16H72V32z" />
<path class="st0" d="M104,32h16v16h-16V32z" />
<path class="st0" d="M136,32h16v16h-16V32z" />
<path
    class="st0"
    d="M456,400H288c-1.6,0-3.1,0.5-4.4,1.3l-24,16c-2.2,1.5-3.6,4-3.6,6.7s1.3,5.2,3.6,6.7l24,16
	c1.3,0.9,2.9,1.3,4.4,1.3h144v8c0,4.4-3.6,8-8,8h-56v16h56c13.3,0,24-10.7,24-24v-8h8c13.3,0,24-10.7,24-24S469.3,400,456,400z
	 M278.4,424l12-8H360v16h-69.6L278.4,424z M376,432v-16h56v16H376z M456,432h-8v-16h8c4.4,0,8,3.6,8,8S460.4,432,456,432z"
  />
<path
    class="st0"
    d="M440,64h-40V40c0-22.1-17.9-40-40-40H72C49.9,0,32,17.9,32,40v72h16V40c0-13.3,10.7-24,24-24h288
	c13.3,0,24,10.7,24,24v24H72v16h48.2c-3.6,4.7-6.2,10.2-7.4,16H72v16h56v-8c0-13.3,10.7-24,24-24h288c13.3,0,24,10.7,24,24v208
	c0,13.3-10.7,24-24,24H256v16h184c22.1,0,40-17.9,40-40V104C480,81.9,462.1,64,440,64z"
  />
<path class="st0" d="M152,96h16v16h-16V96z" />
<path class="st0" d="M184,96h16v16h-16V96z" />
<path class="st0" d="M216,96h16v16h-16V96z" />
<path
    class="st0"
    d="M256,256v16h80v32h104v-16h-88v-16h88v-16h-88v-16h88v-16h-88v-16h88v-16h-88v-16h88v-16h-88v-16h88v-16H256v16
	h80v16h-80v16h80v16h-80v16h80v16h-80v16h80v16H256z"
  />
<path
    class="st0"
    d="M32,480h176c17.7,0,32-14.3,32-32V160c0-17.7-14.3-32-32-32H32c-17.7,0-32,14.3-32,32v288
	C0,465.7,14.3,480,32,480z M16,160c0-8.8,7.2-16,16-16h176c8.8,0,16,7.2,16,16v288c0,8.8-7.2,16-16,16H32c-8.8,0-16-7.2-16-16V160z"
  />
<path
    class="st0"
    d="M40,384h32c4.4,0,8-3.6,8-8v-32c0-4.4-3.6-8-8-8H40c-4.4,0-8,3.6-8,8v32C32,380.4,35.6,384,40,384z M48,352h16
	v16H48V352z"
  />
<path
    class="st0"
    d="M136,336h-32c-4.4,0-8,3.6-8,8v32c0,4.4,3.6,8,8,8h32c4.4,0,8-3.6,8-8v-32C144,339.6,140.4,336,136,336z
	 M128,368h-16v-16h16V368z"
  />
<path
    class="st0"
    d="M40,320h32c4.4,0,8-3.6,8-8v-32c0-4.4-3.6-8-8-8H40c-4.4,0-8,3.6-8,8v32C32,316.4,35.6,320,40,320z M48,288h16
	v16H48V288z"
  />
<path
    class="st0"
    d="M136,272h-32c-4.4,0-8,3.6-8,8v32c0,4.4,3.6,8,8,8h32c4.4,0,8-3.6,8-8v-32C144,275.6,140.4,272,136,272z
	 M128,304h-16v-16h16V304z"
  />
<path
    class="st0"
    d="M200,272h-32c-4.4,0-8,3.6-8,8v32c0,4.4,3.6,8,8,8h32c4.4,0,8-3.6,8-8v-32C208,275.6,204.4,272,200,272z
	 M192,304h-16v-16h16V304z"
  />
<path
    class="st0"
    d="M40,448h32c4.4,0,8-3.6,8-8v-32c0-4.4-3.6-8-8-8H40c-4.4,0-8,3.6-8,8v32C32,444.4,35.6,448,40,448z M48,416h16
	v16H48V416z"
  />
<path
    class="st0"
    d="M136,400h-32c-4.4,0-8,3.6-8,8v32c0,4.4,3.6,8,8,8h32c4.4,0,8-3.6,8-8v-32C144,403.6,140.4,400,136,400z
	 M128,432h-16v-16h16V432z"
  />
<path
    class="st0"
    d="M200,336h-32c-4.4,0-8,3.6-8,8v96c0,4.4,3.6,8,8,8h32c4.4,0,8-3.6,8-8v-96C208,339.6,204.4,336,200,336z
	 M192,432h-16v-80h16V432z"
  />
<path
    class="st0"
    d="M40,256h160c4.4,0,8-3.6,8-8v-64c0-4.4-3.6-8-8-8H40c-4.4,0-8,3.6-8,8v64C32,252.4,35.6,256,40,256z M192,240
	H48v-48h144V240z"
  />
<path class="st0" d="M160,208h16v16h-16V208z" />
<path class="st0" d="M128,208h16v16h-16V208z" />
<path class="st0" d="M96,208h16v16H96V208z" />
</svg>
