<?xml version="1.0" encoding="utf-8"?>
<!-- Generator: Adobe Illustrator 27.0.0, SVG Export Plug-In . SVG Version: 6.00 Build 0)  -->
<svg version="1.1" id="Layer_5" xmlns="http://www.w3.org/2000/svg" xmlns:xlink="http://www.w3.org/1999/xlink" x="0px" y="0px"
	 viewBox="0 0 512 512" style="enable-background:new 0 0 512 512;" xml:space="preserve">
<style type="text/css">
	.st0{fill:#04994E;}
</style>
<g>
	<path class="st0" d="M169,148.1l64-112l13.9,7.9l-64,112L169,148.1z"/>
	<path class="st0" d="M256,88c-13.2,0-24,10.8-24,24s10.8,24,24,24s24-10.8,24-24S269.2,88,256,88z M256,120c-4.4,0-8-3.6-8-8
		s3.6-8,8-8c4.4,0,8,3.6,8,8S260.4,120,256,120z"/>
	<path class="st0" d="M184,80c0-13.2-10.8-24-24-24s-24,10.8-24,24s10.8,24,24,24S184,93.2,184,80z M160,88c-4.4,0-8-3.6-8-8
		s3.6-8,8-8s8,3.6,8,8S164.4,88,160,88z"/>
	<path class="st0" d="M468.5,248h-2c22.7-15.9,37.6-42.2,37.6-72c0-48.5-39.5-88-88-88c-29.8,0-56.1,14.9-72,37.6V8H76.4L8,85V107
		l68.4,77H168h13.4c11.5,0,21.5,8.2,23.6,19.6l41.6,221.7c-17.5,4.3-30.6,20-30.6,38.8c0,9,3.1,17.3,8.2,24H200v-96h-48v96h-16V312
		H88v176H72V360H24v128H8v16h248c22.1,0,40-17.9,40-40c0-9-3.1-17.3-8.2-24h112.4c-5.1,6.7-8.2,15-8.2,24c0,22.1,17.9,40,40,40
		s40-17.9,40-40s-17.9-40-40-40H262.6l-6-32h187.5c15.3,0,28.9-9.8,33.7-24.3l24.3-72.9c1.2-3.6,1.8-7.4,1.8-11.2
		C504,263.9,488.1,248,468.5,248L468.5,248z M72,155l-48-54V91l48-54V155z M56,488H40V376h16V488z M120,488h-16V328h16V488z
		 M184,488h-16v-80h16V488z M432,440c13.2,0,24,10.8,24,24s-10.8,24-24,24s-24-10.8-24-24S418.8,440,432,440z M416,104
		c39.7,0,72,32.3,72,72s-32.3,72-72,72s-72-32.3-72-72S376.3,104,416,104z M181.4,168H168H88V24h240v144H181.4z M220.8,200.6
		c-1.2-6.2-3.9-11.8-7.5-16.6h115.1c2.4,26.4,16.5,49.5,37.2,64H229.6L220.8,200.6z M280,464c0,13.2-10.8,24-24,24s-24-10.8-24-24
		s10.8-24,24-24S280,450.8,280,464z M280,376h-26.4l-6-32H280V376z M280,328h-35.4l-6-32H280V328z M280,280h-44.4l-3-16H280V280z
		 M328,376h-32v-32h32V376z M328,328h-32v-32h32V328z M328,280h-32v-16h32V280z M376,376h-32v-32h32V376z M376,328h-32v-32h32V328z
		 M376,280h-32v-16h32V280z M424,376h-32v-32h32V376z M424,328h-32v-32h32V328z M424,280h-32v-16h32V280z M462.7,362.6
		c-2.7,8-10.1,13.4-18.5,13.4H440v-32h28.9L462.7,362.6z M474.2,328H440v-32h44.9L474.2,328z M440,280v-16h28.5
		c9.6,0,17.5,6.9,19.2,16H440z"/>
	<path class="st0" d="M405.9,216h2.1v16h16v-16h2.1c12.1,0,21.9-9.8,21.9-21.9c0-9.5-6-17.8-15-20.8l-28.9-9.6
		c-2.4-0.8-4.1-3.1-4.1-5.6c0-3.3,2.7-5.9,5.9-5.9h20.1c3.3,0,5.9,2.7,5.9,5.9v2.1h16v-2.1c0-12.1-9.8-21.9-21.9-21.9H424v-16h-16
		v16h-2.1c-12.1,0-21.9,9.8-21.9,21.9c0,9.5,6,17.8,15,20.8l28.9,9.6c2.4,0.8,4.1,3.1,4.1,5.6c0,3.3-2.7,5.9-5.9,5.9h-20.1
		c-3.3,0-5.9-2.7-5.9-5.9V184h-16v10.1C384,206.2,393.8,216,405.9,216z"/>
</g>
</svg>
