<?xml version="1.0" encoding="utf-8" ?>
<!-- Generator: Adobe Illustrator 27.0.0, SVG Export Plug-In . SVG Version: 6.00 Build 0)  -->
<svg
  version="1.1"
  id="Layer_1"
  xmlns="http://www.w3.org/2000/svg"
  xmlns:xlink="http://www.w3.org/1999/xlink"
  x="0px"
  y="0px"
  viewBox="0 0 512 512"
  style="enable-background:new 0 0 512 512;"
  xml:space="preserve"
>
<style type="text/css">
.st0 {
  fill: #04994e;
}
  </style>
<g>
	<g>
		<g>
			<path
          class="st0"
          d="M115.6,121H15.5c-4.7,0-7.8-3.1-7.8-7.8V72.9c0-17.1,7-32.6,19.4-44.2c11.6-10.9,25.6-16.3,41.1-15.5
				C83,14,97,20.2,107.1,30.3c10.9,10.1,17.1,24,17.1,40.3v42.7C123.3,117.9,120.2,121,115.6,121z M23.3,105.5h84.6V70.6
				c0-11.6-4.7-21.7-12.4-29.5S77.6,28.7,66.7,28.7c-10.9-0.8-20.9,3.1-29.5,10.9c-8.5,8.5-14,20.9-14,33.4L23.3,105.5z"
        />
		</g>
		<g>
			<path
          class="st0"
          d="M401.8,151.3c-4.7,0-7.8-3.1-7.8-7.8v-97c-2.3-10.9-10.9-18.6-22.5-18.6H67.5c-4.7,0-7.8-3.1-7.8-7.8
				s3.1-7.8,7.8-7.8h304.1c19.4,0,34.9,13.2,38,31.8v1.6v97.7C409.6,148.2,406.5,151.3,401.8,151.3z"
        />
		</g>
		<g>
			<path
          class="st0"
          d="M446.8,499.6H165.2c-31.8,0-57.4-25.6-57.4-57.4V283.9c0-4.7,3.1-7.8,7.8-7.8s7.8,3.1,7.8,7.8v158.3
				c0,23.3,18.6,41.9,41.9,41.9c11.6,0,21.7-4.7,30.3-12.4c7.8-7.8,12.4-17.8,12.4-29.5v-20.9c0-4.7,3.1-7.8,7.8-7.8h281.6
				c4.7,0,7.8,3.1,7.8,7.8v20.9c0,14.7-6.2,29.5-17.1,40.3C477.1,493.4,462.4,499.6,446.8,499.6z M204.8,484.1h242
				c11.6,0,21.7-4.7,30.3-12.4c7.8-7.8,12.4-18.6,12.4-29.5V429H223.4v13.2c0,16.3-6.2,30.3-17.1,40.3
				C205.6,483.3,205.6,483.3,204.8,484.1L204.8,484.1z"
        />
		</g>
		<g>
			<path
          class="st0"
          d="M115.6,218.8c-4.7,0-7.8-3.1-7.8-7.8V70.6c0-4.7,3.1-7.8,7.8-7.8s7.8,3.1,7.8,7.8V211
				C123.3,215.7,120.2,218.8,115.6,218.8z"
        />
		</g>
	</g>
	<g>
		<g>
			<path
          class="st0"
          d="M453.8,429H332c-24.8,0-45-20.2-45-45V181.5c0-24.8,20.2-45,45-45h121.8c24.8,0,45,20.2,45,45v203.2
				C498,409.6,477.9,429,453.8,429L453.8,429z M332,152c-16.3,0-29.5,13.2-29.5,29.5V384c0,16.3,13.2,29.5,29.5,29.5h121.8
				c15.5,0,28.7-13.2,29.5-28.7V181.5c0-16.3-13.2-29.5-29.5-29.5H332z"
        />
		</g>
		<g>
			<path
          class="st0"
          d="M454.6,225.7H332c-4.7,0-7.8-3.1-7.8-7.8v-44.2c0-4.7,3.1-7.8,7.8-7.8h122.6c4.7,0,7.8,3.1,7.8,7.8V218
				C462.4,222.6,459.2,225.7,454.6,225.7L454.6,225.7z M339.8,210.2h107.1v-28.7H339.8V210.2z"
        />
		</g>
		<g>
			<g>
				<path
            class="st0"
            d="M353.7,283.2h-27.9c-4.7,0-7.8-3.1-7.8-7.8v-27.9c0-4.7,3.1-7.8,7.8-7.8h27.9c4.7,0,7.8,3.1,7.8,7.8v27.9
					C361.5,280,358.4,283.2,353.7,283.2z M333.6,267.6H346v-12.4h-12.4V267.6z"
          />
			</g>
			<g>
				<path
            class="st0"
            d="M406.5,283.2h-27.9c-4.7,0-7.8-3.1-7.8-7.8v-27.9c0-4.7,3.1-7.8,7.8-7.8h27.9c4.7,0,7.8,3.1,7.8,7.8v27.9
					C414.3,280,411.2,283.2,406.5,283.2z M386.3,267.6h12.4v-12.4h-12.4V267.6z"
          />
			</g>
			<g>
				<path
            class="st0"
            d="M460,283.2h-27.9c-4.7,0-7.8-3.1-7.8-7.8v-27.9c0-4.7,3.1-7.8,7.8-7.8H460c4.7,0,7.8,3.1,7.8,7.8v27.9
					C467.8,280,464.7,283.2,460,283.2z M439.9,267.6h12.4v-12.4h-12.4V267.6z"
          />
			</g>
		</g>
		<g>
			<g>
				<path
            class="st0"
            d="M353.7,341.3h-27.9c-4.7,0-7.8-3.1-7.8-7.8v-27.9c0-4.7,3.1-7.8,7.8-7.8h27.9c4.7,0,7.8,3.1,7.8,7.8v27.9
					C361.5,338.2,358.4,341.3,353.7,341.3z M333.6,325.8H346v-12.4h-12.4V325.8z"
          />
			</g>
			<g>
				<path
            class="st0"
            d="M406.5,341.3h-27.9c-4.7,0-7.8-3.1-7.8-7.8v-27.9c0-4.7,3.1-7.8,7.8-7.8h27.9c4.7,0,7.8,3.1,7.8,7.8v27.9
					C414.3,338.2,411.2,341.3,406.5,341.3z M386.3,325.8h12.4v-12.4h-12.4V325.8z"
          />
			</g>
			<g>
				<path
            class="st0"
            d="M460,341.3h-27.9c-4.7,0-7.8-3.1-7.8-7.8v-27.9c0-4.7,3.1-7.8,7.8-7.8H460c4.7,0,7.8,3.1,7.8,7.8v27.9
					C467.8,338.2,464.7,341.3,460,341.3z M439.9,325.8h12.4v-12.4h-12.4V325.8z"
          />
			</g>
		</g>
		<g>
			<path
          class="st0"
          d="M406.5,399.5h-80.7c-4.7,0-7.8-3.1-7.8-7.8v-27.9c0-4.7,3.1-7.8,7.8-7.8h80.7c4.7,0,7.8,3.1,7.8,7.8v27.9
				C414.3,396.4,411.2,399.5,406.5,399.5z M333.6,384h65.2v-12.4h-65.2V384z"
        />
		</g>
		<g>
			<path
          class="st0"
          d="M460,399.5h-27.9c-4.7,0-7.8-3.1-7.8-7.8v-27.9c0-4.7,3.1-7.8,7.8-7.8H460c4.7,0,7.8,3.1,7.8,7.8v27.9
				C467.8,396.4,464.7,399.5,460,399.5z M439.9,384h12.4v-12.4h-12.4V384z"
        />
		</g>
	</g>
	<g>
		<g>
			<path
          class="st0"
          d="M175.3,109.4c-15.5,0-28.7-13.2-28.7-28.7S159.8,52,175.3,52S204,65.2,204,80.7c0,4.7-3.1,7.8-7.8,7.8
				c-4.7,0-7.8-3.1-7.8-7.8c0-7.8-5.4-13.2-13.2-13.2c-7.8,0-13.2,5.4-13.2,13.2s5.4,13.2,13.2,13.2c4.7,0,7.8,3.1,7.8,7.8
				S180,109.4,175.3,109.4z"
        />
		</g>
		<g>
			<path
          class="st0"
          d="M175.3,151.3c-15.5,0-28.7-13.2-28.7-28.7c0-4.7,3.1-7.8,7.8-7.8c4.7,0,7.8,3.1,7.8,7.8
				c0,7.8,5.4,13.2,13.2,13.2c7.8,0,13.2-5.4,13.2-13.2s-5.4-13.2-13.2-13.2c-4.7,0-7.8-3.1-7.8-7.8s3.1-7.8,7.8-7.8
				c15.5,0,28.7,13.2,28.7,28.7S190.8,151.3,175.3,151.3z"
        />
		</g>
		<g>
			<path
          class="st0"
          d="M175.3,67.5c-4.7,0-7.8-3.1-7.8-7.8v-8.5c0-4.7,3.1-7.8,7.8-7.8c4.7,0,7.8,3.1,7.8,7.8v8.5
				C183.1,64.4,180,67.5,175.3,67.5z"
        />
		</g>
		<g>
			<path
          class="st0"
          d="M175.3,159c-4.7,0-7.8-3.1-7.8-7.8v-7.8c0-4.7,3.1-7.8,7.8-7.8c4.7,0,7.8,3.1,7.8,7.8v7.8
				C183.1,155.9,180,159,175.3,159z"
        />
		</g>
	</g>
	<g>
		<g>
			<path
          class="st0"
          d="M353.7,88.4H235.1c-4.7,0-7.8-3.1-7.8-7.8s3.1-7.8,7.8-7.8h118.7c4.7,0,7.8,3.1,7.8,7.8
				S358.4,88.4,353.7,88.4z"
        />
		</g>
		<g>
			<path
          class="st0"
          d="M273.8,128.8h-38.8c-4.7,0-7.8-3.1-7.8-7.8s3.1-7.8,7.8-7.8h38.8c4.7,0,7.8,3.1,7.8,7.8
				S278.5,128.8,273.8,128.8z"
        />
		</g>
	</g>
	<g>
		<path
        class="st0"
        d="M254.4,206.4h-99.3c-4.7,0-7.8-3.1-7.8-7.8c0-4.7,3.1-7.8,7.8-7.8h99.3c4.7,0,7.8,3.1,7.8,7.8
			C262.2,203.2,259.1,206.4,254.4,206.4z"
      />
	</g>
	<g>
		<path
        class="st0"
        d="M254.4,248.2h-58.2c-4.7,0-7.8-3.1-7.8-7.8c0-4.7,3.1-7.8,7.8-7.8h58.2c4.7,0,7.8,3.1,7.8,7.8
			C262.2,245.1,259.1,248.2,254.4,248.2z"
      />
	</g>
	<g>
		<path
        class="st0"
        d="M254.4,290.1h-23.3c-4.7,0-7.8-3.1-7.8-7.8c0-4.7,3.1-7.8,7.8-7.8h23.3c4.7,0,7.8,3.1,7.8,7.8
			C262.2,287,259.1,290.1,254.4,290.1z"
      />
	</g>
	<g>
		<path
        class="st0"
        d="M254.4,332.8h-3.1c-4.7,0-7.8-3.1-7.8-7.8s3.1-7.8,7.8-7.8h3.1c4.7,0,7.8,3.1,7.8,7.8
			S259.1,332.8,254.4,332.8z"
      />
	</g>
	<g>
		<g>
			<path
          class="st0"
          d="M180.8,358.4c-2.3,0-3.9-0.8-5.4-2.3L10.1,188.5c-2.3-1.6-3.1-4.7-2.3-7c5.4-22.5,19.4-36.5,41.9-41.9
				c2.3-0.8,5.4,0,7,2.3l165.2,167.6c3.1,3.1,3.1,7.8,0,10.9l-35.7,35.7C184.6,357.6,183.1,358.4,180.8,358.4L180.8,358.4z
				 M24,180.8l156.7,159l25.6-25.6l-156.7-159C36.5,159.8,27.9,167.6,24,180.8L24,180.8z"
        />
		</g>
		<g>
			<path
          class="st0"
          d="M235.1,376.2c-0.8,0-1.6,0-2.3,0l-54.3-17.8c-3.9-1.6-6.2-5.4-4.7-10.1c1.6-3.9,5.4-6.2,10.1-4.7l39.6,13.2
				l-14-40.3c-1.6-3.9,0.8-8.5,4.7-10.1s8.5,0.8,10.1,4.7l17.8,54.3c0.8,3.1,0,6.2-1.6,7.8C238.9,375.5,237.4,376.2,235.1,376.2
				L235.1,376.2z"
        />
		</g>
	</g>
</g>
</svg>
