<?xml version="1.0" encoding="utf-8"?>
<!-- Generator: Adobe Illustrator 27.0.0, SVG Export Plug-In . SVG Version: 6.00 Build 0)  -->
<svg version="1.1" id="Layer_1" xmlns="http://www.w3.org/2000/svg" xmlns:xlink="http://www.w3.org/1999/xlink" x="0px" y="0px"
	 viewBox="0 0 512 512" style="enable-background:new 0 0 512 512;" xml:space="preserve">
<style type="text/css">
	.st0{fill:#04994E;}
</style>
<g id="OUTLINE">
	<g id="_20-Email_copy">
		<path class="st0" d="M27.7,141.8c-2.5-3.7-1.5-8.6,2.2-11.1l72-48c2.1-1.4,4.6-1.7,7-0.9l43.6,14.5L207.8,48H184c-4.4,0-8-3.6-8-8
			s3.6-8,8-8h40c4.4,0,8,3.6,8,8v40c0,4.4-3.6,8-8,8s-8-3.6-8-8V62.1l-56.3,49.3c-2.1,1.9-5.1,2.5-7.8,1.6l-44.3-14.8L38.8,144
			C35.2,146.5,30.2,145.5,27.7,141.8z M72,184c4.4,0,8,3.6,8,8v48c0,4.4-3.6,8-8,8H40c-4.4,0-8-3.6-8-8v-48c0-4.4,3.6-8,8-8H72z
			 M64,200H48v32h16V200z M136,160c4.4,0,8,3.6,8,8v72c0,4.4-3.6,8-8,8h-32c-4.4,0-8-3.6-8-8v-72c0-4.4,3.6-8,8-8H136z M128,176h-16
			v56h16V176z M200,128c4.4,0,8,3.6,8,8v104c0,4.4-3.6,8-8,8h-32c-4.4,0-8-3.6-8-8V136c0-4.4,3.6-8,8-8H200z M192,144h-16v88h16V144
			z M354.4,225.4h16c4.2,0.5,7.5,3.8,8,8c-0.5,4.2-3.8,7.5-8,8h-24c-4.4,0-8,3.6-8,8c0,4.4,3.6,8,8,8h8v8c0,4.4,3.6,8,8,8s8-3.6,8-8
			v-8c13.3,0,24-10.7,24-24s-10.7-24-24-24h-16c-4.2-0.5-7.5-3.8-8-8c0.5-4.2,3.8-7.5,8-8h24c4.4,0,8-3.6,8-8s-3.6-8-8-8h-8v-8
			c0-4.4-3.6-8-8-8s-8,3.6-8,8v8c-13.3,0-24,10.7-24,24S341.1,225.4,354.4,225.4L354.4,225.4z M274.4,217.4c0-48.6,39.4-88,88-88
			s88,39.4,88,88s-39.4,88-88,88l0,0C313.8,305.3,274.4,266,274.4,217.4z M290.4,217.4c0,39.8,32.2,72,72,72s72-32.2,72-72
			s-32.2-72-72-72l0,0C322.6,145.4,290.4,177.6,290.4,217.4z M242.4,217.4c0.1-63.1,49-115.4,112-119.6V84.7c-4,1-8.1,1.5-12.2,1.5
			c-8.1,0-16.1-1.9-23.4-5.6C301.1,71,288,54.6,282.6,35.2c-1-4.3,1.6-8.6,5.9-9.6c0.1,0,0.1,0,0.2,0c18.2-2.9,36.9,0.1,53.3,8.7
			c4.5,2.3,8.7,5.2,12.4,8.7V25.4c0-4.4,3.6-8,8-8s8,3.6,8,8v9.5c3.7-3.5,7.9-6.4,12.4-8.7c19.1-8.6,40.2-11.6,60.9-8.8
			c4.4,0.7,7.3,4.8,6.6,9.2c-0.1,0.9-0.4,1.7-0.8,2.5c-10.2,18.2-25.3,33.2-43.4,43.4c-7.2,3.7-15.3,5.6-23.4,5.6
			c-4.1,0-8.2-0.5-12.2-1.5v21.1c66.1,4.5,116.1,61.6,111.6,127.7s-61.6,116.1-127.7,111.6C291.3,332.9,242.4,280.5,242.4,217.4
			L242.4,217.4z M371.9,60.6c8.9,2.7,18.5,1.8,26.8-2.4c11.6-6.3,21.6-15.1,29.3-25.8c-13.1-0.3-26.2,2.5-38.1,8
			C381.7,44.7,375.2,51.9,371.9,60.6z M352.8,68.6c-3.3-8.8-9.7-15.9-18.1-20.1c-10.3-5.2-21.6-8-33.1-8c5.1,11,13.6,20.1,24.4,25.8
			C334.3,70.5,343.9,71.4,352.8,68.6z M258.4,217.4c0,57.4,46.6,104,104,104s104-46.6,104-104s-46.6-104-104-104
			C305,113.4,258.5,160,258.4,217.4z M490.1,379.5c-5,11.2-113,88.6-137.9,103.7c-13.3,8-28.6,12.3-44.2,12.3
			c-11.6,0-23.1-2.4-33.7-7.1L173,448.2c-14-5.6-28.7-9.1-43.7-10.6c-0.3,0-0.6-0.1-0.9-0.1l-16.5-3.5V456c0,4.4-3.6,8-8,8H24
			c-4.4,0-8-3.6-8-8V272c0-4.4,3.6-8,8-8h80c4.4,0,8,3.6,8,8v21.8l37.2-9c13.3-5.3,28.2-5,41.3,0.8L320,351.1
			c11.2,5.1,19.3,15.3,21.6,27.5c14.4-6.8,38-19,57.8-29.3c22.1-11.5,35.9-18.6,40.6-20.5c19.3-8.5,41.8,0.2,50.3,19.4
			C494.7,358.2,494.7,369.5,490.1,379.5L490.1,379.5z M96,280H32v168h64V280z M476,355.4c-4.7-11.4-17.8-16.9-29.2-12.2
			c-0.3,0.1-0.6,0.2-0.8,0.4c-4.2,1.7-21.2,10.5-39.2,19.8c-24.5,12.7-51.9,26.9-65.4,32.8c-2.2,12.7-10.4,23.6-22,29.3
			c-5.3,2.6-11.1,3.9-17,4c-4.4,0-8.8-0.8-13-2.3L209.8,398c-4.2-1.5-6.3-6.1-4.8-10.3s6.1-6.3,10.3-4.8l0,0l79.6,29.1
			c5.7,2,12,1.7,17.5-1c5.7-2.8,10-7.7,12.2-13.7c0.7-2.6,1.2-5.2,1.5-7.9c1.5-10-3.8-19.8-13-24l-129.4-65.5
			c-9.2-4-19.7-4.1-29-0.2c-0.4,0.1-0.7,0.3-1.1,0.4L112,310.3v107.2l19.4,4.2c16.3,1.7,32.3,5.6,47.5,11.6l101.6,40.3
			c20.5,9.1,44.2,7.5,63.4-4.2c32-19.3,123.4-87.4,131.9-97.1C478.1,367,478.2,360.9,476,355.4z"/>
	</g>
</g>
</svg>
