<?xml version="1.0" encoding="utf-8"?>
<!-- Generator: Adobe Illustrator 27.0.0, SVG Export Plug-In . SVG Version: 6.00 Build 0)  -->
<svg version="1.1" id="Layer_1" xmlns="http://www.w3.org/2000/svg" xmlns:xlink="http://www.w3.org/1999/xlink" x="0px" y="0px"
	 viewBox="0 0 512 512" style="enable-background:new 0 0 512 512;" xml:space="preserve">
<style type="text/css">
	.st0{fill:#04994E;}
</style>
<path class="st0" d="M207.3,152.7c4.4,0,8,3.6,8,8v35.9c0,4.4-3.6,8-8,8s-8-3.6-8-8v-35.9C199.3,156.3,202.9,152.7,207.3,152.7z
	 M296.7,160.7v35.9c0,4.4,3.6,8,8,8s8-3.6,8-8v-35.9c0-4.4-3.6-8-8-8S296.7,156.3,296.7,160.7z M217.3,87.1
	c-6.8-8.5-10.9-19.3-10.9-31c0-27.3,22.3-49.6,49.6-49.6c27.4,0,49.6,22.2,49.6,49.6c0,11.7-4.1,22.5-11,31
	c28.2,5.3,49.7,30.1,49.7,59.6v49.9c0,4.4-3.6,8-8,8s-8-3.6-8-8v-49.9c0-24.4-19.9-44.5-44.4-44.7h-9.4c-5.7,2.3-12,3.6-18.5,3.6
	s-12.8-1.3-18.5-3.6H228c-24.4,0.2-44.3,20.2-44.3,44.7v49.9c0,4.4-3.6,8-8,8s-8-3.6-8-8v-49.9C167.7,117.1,189.1,92.3,217.3,87.1z
	 M222.4,56.1c0,18.5,15.1,33.6,33.6,33.6c18.6,0,33.6-15.1,33.6-33.6c0-18.5-15.1-33.6-33.6-33.6C237.5,22.5,222.4,37.5,222.4,56.1z
	 M39.7,388.5c-4.4,0-8,3.6-8,8v36c0,4.4,3.6,8,8,8s8-3.6,8-8v-36C47.7,392.1,44.1,388.5,39.7,388.5z M145,396.5c0-4.4-3.6-8-8-8
	s-8,3.6-8,8v36c0,4.4,3.6,8,8,8s8-3.6,8-8V396.5z M116.3,337.8h-9.4c-5.7,2.3-12,3.6-18.5,3.6s-12.8-1.3-18.5-3.6h-9.5
	C35.9,338,16,358.1,16,382.5v49.9c0,4.4-3.6,8-8,8s-8-3.6-8-8v-49.9c0-29.6,21.5-54.4,49.7-59.6c-6.8-8.5-11-19.3-11-31
	c0-27.3,22.3-49.6,49.6-49.6c27.4,0,49.6,22.2,49.6,49.6c0,11.7-4.1,22.5-10.9,31c28.2,5.3,49.7,30.1,49.7,59.6v49.9
	c0,4.4-3.6,8-8,8s-8-3.6-8-8v-49.9C160.7,358.1,140.8,338,116.3,337.8z M88.4,325.4c18.5,0,33.6-15,33.6-33.6
	c0-18.5-15.1-33.6-33.6-33.6c-18.6,0-33.6,15.1-33.6,33.6C54.7,310.4,69.8,325.4,88.4,325.4z M375,388.5c-4.4,0-8,3.6-8,8v36
	c0,4.4,3.6,8,8,8s8-3.6,8-8v-36C383,392.1,379.4,388.5,375,388.5z M472.3,388.5c-4.4,0-8,3.6-8,8v36c0,4.4,3.6,8,8,8s8-3.6,8-8v-36
	C480.3,392.1,476.8,388.5,472.3,388.5z M512,382.5v49.9c0,4.4-3.6,8-8,8s-8-3.6-8-8v-49.9c0-24.5-19.9-44.5-44.4-44.7h-9.4
	c-5.7,2.3-12,3.6-18.5,3.6s-12.8-1.3-18.5-3.6h-9.5c-24.4,0.2-44.3,20.2-44.3,44.7v49.9c0,4.4-3.6,8-8,8s-8-3.6-8-8v-49.9
	c0-29.6,21.5-54.4,49.6-59.6c-6.8-8.5-11-19.3-11-31c0-27.3,22.3-49.6,49.6-49.6s49.6,22.2,49.6,49.6c0,11.7-4.1,22.5-11,31
	C490.5,328.1,512,352.9,512,382.5L512,382.5z M423.7,325.4c18.5,0,33.6-15,33.6-33.6c0-18.5-15.1-33.6-33.6-33.6
	S390,273.3,390,291.9C390,310.4,405.1,325.4,423.7,325.4z M347.5,93.2c54.3,26.5,94.4,74.9,110.2,133c1,3.6,4.2,5.9,7.7,5.9
	c0.7,0,1.4-0.1,2.1-0.3c4.3-1.2,6.8-5.6,5.6-9.8C456.2,159.5,413,107.4,354.5,78.9c-4-1.9-8.8-0.3-10.7,3.7S343.5,91.3,347.5,93.2z
	 M44.5,231.8c0.7,0.2,1.4,0.3,2.1,0.3c3.5,0,6.8-2.4,7.7-5.9c15.7-58,55.9-106.5,110.2-133c4-1.9,5.6-6.7,3.7-10.7
	c-1.9-4-6.7-5.6-10.7-3.7C99.1,107.3,55.8,159.5,38.9,222C37.7,226.3,40.3,230.7,44.5,231.8L44.5,231.8z M357.3,463.4
	c-30.8,17.1-65.8,26.1-101.3,26.1c-35.4,0-70.5-9-101.3-26.1c-3.9-2.1-8.7-0.8-10.9,3.1s-0.8,8.7,3.1,10.9
	c33.2,18.4,70.9,28.2,109.1,28.2c38.2,0,75.9-9.7,109.1-28.2c3.9-2.1,5.3-7,3.1-10.9C366,462.6,361.2,461.2,357.3,463.4z"/>
</svg>
