<?xml version="1.0" encoding="utf-8"?>
<!-- Generator: Adobe Illustrator 27.0.0, SVG Export Plug-In . SVG Version: 6.00 Build 0)  -->
<svg version="1.1" id="Layer_1" xmlns="http://www.w3.org/2000/svg" xmlns:xlink="http://www.w3.org/1999/xlink" x="0px" y="0px"
	 viewBox="0 0 510 510" style="enable-background:new 0 0 510 510;" xml:space="preserve">
<style type="text/css">
	.st0{fill-rule:evenodd;clip-rule:evenodd;fill:#04994E;}
</style>
<g id="Artboard281">
	<path class="st0" d="M257.6,52.9L366.9,116c2.5,1.4,4,4.1,4,6.9V249c0,2.9-1.5,5.5-4,6.9L257.6,319c-2.5,1.4-5.5,1.4-8,0L140.4,256
		c-2.5-1.4-4-4.1-4-6.9V122.9c0-2.9,1.5-5.5,4-6.9l109.2-63.1C252.1,51.5,255.2,51.5,257.6,52.9L257.6,52.9z M183.2,109.7
		l-22.8,13.2c27.6,15.9,93.2,53.8,93.2,53.8l22.8-13.2L183.2,109.7z M214.9,91.4l-15.7,9.1l93.2,53.8l15.7-9.1L214.9,91.4z
		 M346.9,122.9l-93.2-53.8l-22.8,13.2l93.2,53.8L346.9,122.9z M261.6,298.2l93.2-53.8c0,0,0-80,0-107.7l-22.8,13.2V195
		c0,2.9-1.5,5.5-4,6.9l-31.7,18.3c-2.5,1.4-5.5,1.4-8,0c-2.5-1.4-4-4.1-4-6.9v-35.8l-22.8,13.2V298.2z M152.4,136.7v107.7
		c0,0,69.3,40,93.2,53.8V190.6L152.4,136.7z M316.1,159.1l-15.7,9.1v31.2l15.7-9.1V159.1z M122.7,286l87.5,50.5c2.5,1.4,4,4.1,4,6.9
		v101c0,2.9-1.5,5.5-4,6.9l-87.5,50.5c-2.5,1.4-5.5,1.4-8,0l-87.5-50.5c-2.5-1.4-4-4.1-4-6.9v-101c0-2.9,1.5-5.5,4-6.9l87.5-50.5
		C117.1,284.6,120.2,284.6,122.7,286z M133.7,310.9l-15.1-8.7l-71.5,41.3c4.3,2.5,9.5,5.5,15.1,8.7L133.7,310.9z M159.1,325.5
		l-9.4-5.4l-71.5,41.3c3.2,1.8,6.3,3.6,9.4,5.4L159.1,325.5z M190.2,343.4l-15.1-8.7L103.6,376c8.9,5.2,15.1,8.7,15.1,8.7
		L190.2,343.4z M126.7,481.1l71.5-41.3v-82.6l-71.5,41.3L126.7,481.1z M39.2,357.3v82.6c0,0,51.3,29.6,71.5,41.3v-82.6l-15.1-8.7
		v25.9c0,2.9-1.5,5.5-4,6.9c-2.5,1.4-5.5,1.4-8,0l-25.4-14.6c-2.5-1.4-4-4.1-4-6.9V366L39.2,357.3z M79.6,380.6l-9.4-5.4v21.3
		l9.4,5.4V380.6z M392.6,286l87.5,50.5c2.5,1.4,4,4.1,4,6.9v101c0,2.9-1.5,5.5-4,6.9l-87.5,50.5c-2.5,1.4-5.5,1.4-8,0l-87.5-50.5
		c-2.5-1.4-4-4.1-4-6.9v-101c0-2.9,1.5-5.5,4-6.9l87.5-50.5C387.1,284.6,390.1,284.6,392.6,286z M403.7,310.9l-15.1-8.7l-71.5,41.3
		c4.3,2.5,9.5,5.5,15.1,8.7L403.7,310.9z M429.1,325.5l-9.4-5.4l-71.5,41.3c3.2,1.8,6.3,3.6,9.4,5.4L429.1,325.5z M460.1,343.4
		l-15.1-8.7L373.6,376c8.9,5.2,15.1,8.7,15.1,8.7L460.1,343.4z M396.6,481.1l71.5-41.3v-82.6l-71.5,41.3V481.1z M309.1,357.3v82.6
		c0,0,51.3,29.6,71.5,41.3v-82.6l-15.1-8.7v25.9c0,2.9-1.5,5.5-4,6.9c-2.5,1.4-5.5,1.4-8,0l-25.4-14.6c-2.5-1.4-4-4.1-4-6.9V366
		L309.1,357.3z M349.6,380.6l-9.4-5.4v21.3l9.4,5.4V380.6z M102,22.7c0-4.4,3.6-8,8-8c4.4,0,8,3.6,8,8v21c0,4.4-3.6,8-8,8
		c-4.4,0-8-3.6-8-8V22.7z M152.9,57.6c4.4,0,8,3.6,8,8c0,4.4-3.6,8-8,8h-21c-4.4,0-8-3.6-8-8s3.6-8,8-8L152.9,57.6z M118,108.5
		c0,4.4-3.6,8-8,8c-4.4,0-8-3.6-8-8v-21c0-4.4,3.6-8,8-8c4.4,0,8,3.6,8,8V108.5z M67.1,73.6c-4.4,0-8-3.6-8-8s3.6-8,8-8h21
		c4.4,0,8,3.6,8,8s-3.6,8-8,8H67.1z M427.9,148.3c0-4.4,3.6-8,8-8c4.4,0,8,3.6,8,8v21c0,4.4-3.6,8-8,8c-4.4,0-8-3.6-8-8V148.3z
		 M478.8,183.2c4.4,0,8,3.6,8,8c0,4.4-3.6,8-8,8h-21c-4.4,0-8-3.6-8-8c0-4.4,3.6-8,8-8H478.8z M443.9,234.1c0,4.4-3.6,8-8,8
		c-4.4,0-8-3.6-8-8v-21c0-4.4,3.6-8,8-8c4.4,0,8,3.6,8,8V234.1z M393,199.2c-4.4,0-8-3.6-8-8c0-4.4,3.6-8,8-8h21c4.4,0,8,3.6,8,8
		c0,4.4-3.6,8-8,8H393z M385,15c0-4.4,3.6-8,8-8c4.4,0,8,3.6,8,8v21c0,4.4-3.6,8-8,8c-4.4,0-8-3.6-8-8V15z M435.9,49.9
		c4.4,0,8,3.6,8,8c0,4.4-3.6,8-8,8h-21c-4.4,0-8-3.6-8-8c0-4.4,3.6-8,8-8L435.9,49.9z M401,100.8c0,4.4-3.6,8-8,8c-4.4,0-8-3.6-8-8
		v-21c0-4.4,3.6-8,8-8c4.4,0,8,3.6,8,8V100.8z M350.1,65.9c-4.4,0-8-3.6-8-8c0-4.4,3.6-8,8-8h21c4.4,0,8,3.6,8,8c0,4.4-3.6,8-8,8
		H350.1z"/>
</g>
</svg>
