<?xml version="1.0" encoding="utf-8"?>
<!-- Generator: Adobe Illustrator 27.0.0, SVG Export Plug-In . SVG Version: 6.00 Build 0)  -->
<svg version="1.1" id="_x31__px" xmlns="http://www.w3.org/2000/svg" xmlns:xlink="http://www.w3.org/1999/xlink" x="0px" y="0px"
	 viewBox="0 0 512 512" style="enable-background:new 0 0 512 512;" xml:space="preserve">
<style type="text/css">
	.st0{fill:#04994E;}
</style>
<path class="st0" d="M373.3,277.3c-76.5,0-138.7-62.2-138.7-138.7S296.9,0,373.3,0S512,62.2,512,138.7S449.8,277.3,373.3,277.3z
	 M373.3,21.3C308.7,21.3,256,74,256,138.7S308.7,256,373.3,256s117.3-52.6,117.3-117.3S438,21.3,373.3,21.3z"/>
<path class="st0" d="M352,192c-2.8,0-5.5-1.1-7.6-3.1l-42.7-42.7c-4.2-4.2-4.2-10.9,0-15.1c4.2-4.2,10.9-4.2,15.1,0l34.6,34.6
	L418.6,89c3.9-4.5,10.6-4.9,15-1c4.4,3.9,4.9,10.6,1,15.1L360,188.4c-1.9,2.2-4.7,3.5-7.6,3.6C352.2,192,352.1,192,352,192L352,192z
	"/>
<path class="st0" d="M416,362.7H138.7c-5.1,0-9.5-3.6-10.5-8.6L85.5,140.8c-0.6-3.1,0.2-6.4,2.2-8.9s5.1-3.9,8.3-3.9h85.3
	c5.9,0,10.7,4.8,10.7,10.7s-4.8,10.7-10.7,10.7H109l38.4,192h259.8l5.9-29.5c1.2-5.8,7-9.5,12.5-8.4c5.8,1.2,9.5,6.8,8.4,12.5
	l-7.6,38.1C425.5,359.1,421.1,362.7,416,362.7z"/>
<path class="st0" d="M138.6,362.7c-5,0-9.4-3.5-10.4-8.6L75.3,89.7C72.4,74.8,59.1,64,43.9,64h0l-33.2,0c0,0,0,0,0,0
	C4.8,64,0,59.2,0,53.3s4.8-10.7,10.6-10.7l33.2,0h0.1c25.3,0,47.3,18,52.3,42.9l52.9,264.4c1.2,5.8-2.6,11.4-8.4,12.5
	C140.1,362.6,139.3,362.7,138.6,362.7L138.6,362.7z"/>
<path class="st0" d="M458.7,405.3H96c-17.6,0-32-14.4-32-32s14.4-32,32-32h42.7c5.9,0,10.7,4.8,10.7,10.7c0,5.9-4.8,10.7-10.7,10.7
	H96c-5.9,0-10.7,4.8-10.7,10.7S90.1,384,96,384h362.7c5.9,0,10.7,4.8,10.7,10.7C469.3,400.6,464.6,405.3,458.7,405.3z"/>
<path class="st0" d="M170.7,512c-23.5,0-42.7-19.1-42.7-42.7s19.1-42.7,42.7-42.7s42.7,19.1,42.7,42.7S194.2,512,170.7,512z
	 M170.7,448c-11.8,0-21.3,9.6-21.3,21.3s9.6,21.3,21.3,21.3s21.3-9.6,21.3-21.3S182.4,448,170.7,448z"/>
<path class="st0" d="M362.7,512c-23.5,0-42.7-19.1-42.7-42.7s19.1-42.7,42.7-42.7s42.7,19.1,42.7,42.7S386.2,512,362.7,512z
	 M362.7,448c-11.8,0-21.3,9.6-21.3,21.3s9.6,21.3,21.3,21.3s21.3-9.6,21.3-21.3S374.4,448,362.7,448z"/>
</svg>
