<?xml version="1.0" encoding="utf-8"?>
<!-- Generator: Adobe Illustrator 27.0.0, SVG Export Plug-In . SVG Version: 6.00 Build 0)  -->
<svg version="1.1" id="Layer_1" xmlns="http://www.w3.org/2000/svg" xmlns:xlink="http://www.w3.org/1999/xlink" x="0px" y="0px"
	 viewBox="0 0 512 512" style="enable-background:new 0 0 512 512;" xml:space="preserve">
<style type="text/css">
	.st0{fill-rule:evenodd;clip-rule:evenodd;fill:#04994E;}
</style>
<path class="st0" d="M450.5,89.1l-78-78c-1.3-1.3-3.1-2.1-5-2.1h-301c-3.9,0-7,3.1-7,7v480c0,3.9,3.1,7,7,7h379.1c3.9,0,7-3.1,7-7
	V94C452.5,92.2,451.8,90.4,450.5,89.1L450.5,89.1z M374.5,32.9L428.6,87h-54.1V32.9z M73.5,489V23h287v71c0,3.9,3.1,7,7,7h71v388
	H73.5z M150.9,411.8h-40.3c-3.9,0-7,3.1-7,7V459c0,3.9,3.1,7,7,7h40.3c3.9,0,7-3.1,7-7v-40.3C157.9,414.9,154.7,411.8,150.9,411.8z
	 M143.9,452h-26.3v-26.3h26.3V452z M408.4,441.9c0,3.9-3.1,7-7,7H174.5c-3.9,0-7-3.1-7-7s3.1-7,7-7h226.9
	C405.3,434.9,408.4,438.1,408.4,441.9z M408.4,279.6c0,3.9-3.1,7-7,7H174.5c-3.9,0-7-3.1-7-7s3.1-7,7-7h226.9
	C405.3,272.6,408.4,275.8,408.4,279.6z M150.9,252.5h-40.3c-3.9,0-7,3.1-7,7v40.3c0,3.9,3.1,7,7,7h40.3c3.9,0,7-3.1,7-7v-40.3
	C157.9,255.6,154.7,252.5,150.9,252.5L150.9,252.5z M143.9,292.8h-26.3v-26.3h26.3V292.8z M408.4,359.3c0,3.9-3.1,7-7,7H174.5
	c-3.9,0-7-3.1-7-7s3.1-7,7-7h226.9C405.3,352.3,408.4,355.4,408.4,359.3z M150.9,332.1h-40.3c-3.9,0-7,3.1-7,7v40.3c0,3.9,3.1,7,7,7
	h40.3c3.9,0,7-3.1,7-7v-40.3C157.9,335.3,154.7,332.1,150.9,332.1z M143.9,372.4h-26.3v-26.3h26.3V372.4z M173.3,68
	c5.5,0,10.1,4.1,10.8,9.6l12.3,109.3c1.6,14,13.5,24.6,27.5,24.6h0.5c-3.9,3.3-6.3,8.3-6.3,13.8c0,10.1,8.2,18.2,18.2,18.2
	s18.2-8.2,18.2-18.2c0-5.5-2.5-10.4-6.3-13.8h49.9c-3.9,3.3-6.3,8.3-6.3,13.8c0,10.1,8.2,18.2,18.2,18.2s18.2-8.2,18.2-18.2
	c0-5.5-2.5-10.4-6.3-13.8h18.5c4.7,0,8.4-3.8,8.4-8.4c0-4.7-3.8-8.4-8.4-8.4H223.9c-5.5,0-10.1-4.1-10.8-9.6l-0.6-4.9h102.3
	c9.5,0,16.7-6.3,18.8-16.4l13.7-62.6c0-0.1,0-0.2,0.1-0.4c0.8-4.9-0.5-9.8-3.6-13.5c-3.3-3.9-8.3-6-14.1-6H201.5l-0.6-5.5
	c-1.6-14-13.5-24.6-27.5-24.6h-1.8c-4.7,0-8.4,3.8-8.4,8.4s3.8,8.4,8.4,8.4L173.3,68L173.3,68z M236.3,229.5c-2.3,0-4.2-1.9-4.2-4.2
	s1.9-4.2,4.2-4.2c2.3,0,4.2,1.9,4.2,4.2C240.6,227.6,238.7,229.5,236.3,229.5L236.3,229.5z M310,229.5c-2.3,0-4.2-1.9-4.2-4.2
	s1.9-4.2,4.2-4.2s4.2,1.9,4.2,4.2C314.3,227.6,312.4,229.5,310,229.5z M307.9,123.4h20.2l-3,13.7h-18.7L307.9,123.4z M246.3,123.4
	h47.6l-1.5,13.7h-44.5L246.3,123.4z M249.4,151.1h41.3l-1.7,15h-38L249.4,151.1z M244.7,109.4l-1.6-14.2H297l-1.6,14.2H244.7z
	 M233.7,137.1h-25.9l-1.5-13.7h25.9L233.7,137.1z M209.4,151.1h25.9l1.7,15H211L209.4,151.1z M319.9,160.9c-1,5.2-4,5.2-5.1,5.2
	h-11.7l1.7-15h17.3l-2.1,9.6C319.9,160.8,319.9,160.8,319.9,160.9z M333.2,96.3c0.5,0.6,0.5,1.4,0.4,2l-2.4,11.1h-21.7l1.6-14.2
	h18.7C331.4,95.2,332.6,95.6,333.2,96.3L333.2,96.3z M229,95.2l1.6,14.2h-25.9l-1.6-14.2H229z"/>
</svg>
