<?xml version="1.0" encoding="utf-8"?>
<!-- Generator: Adobe Illustrator 27.0.0, SVG Export Plug-In . SVG Version: 6.00 Build 0)  -->
<svg version="1.1" id="Layer_1" xmlns="http://www.w3.org/2000/svg" xmlns:xlink="http://www.w3.org/1999/xlink" x="0px" y="0px"
	 viewBox="0 0 512 512" style="enable-background:new 0 0 512 512;" xml:space="preserve">
<style type="text/css">
	.st0{fill:#04994E;}
</style>
<path class="st0" d="M393.3,1.7c-1.1-1.1-2.6-1.7-4.2-1.7H131.3c-11.6,0-21,9.4-21,21v104.4H17.7c-9.8,0-17.7,7.9-17.7,17.7v289.2
	c0,9.8,7.9,17.7,17.7,17.7h92.6v41c0,11.6,9.4,21,21,21H491c11.6,0,21-9.4,21-21V121.7c0-1.6-0.6-3.1-1.8-4.3L393.3,1.7z
	 M403.8,129.3h13.6c29.4,37.7,22.8,92.1-14.9,121.5s-92.1,22.8-121.5-14.9s-22.8-92.1,14.9-121.5c24.8-19.3,58-23.8,87-11.5v5.5
	C382.8,119.9,392.2,129.3,403.8,129.3z M403.8,117.3c-5,0-9-4-9-9V20l98.3,97.2H403.8z M12,432.3V143.1c0-3.2,2.6-5.7,5.7-5.7h199.2
	c3.2,0,5.7,2.6,5.7,5.7v157.7c-10.5,1.2-20.8,4.3-30.2,9.1h-30.1c-3.3,0-6,2.7-6,6v28c0,0.2,0,0.5,0,0.7
	c-16.6,29.4-14.8,65.8,4.8,93.4H17.7C14.5,438,12,435.5,12,432.3L12,432.3z M266.9,363.8c2.5,2.2,6.2,2,8.5-0.4l18-19.8
	c24.3,33.7,16.7,80.7-17.1,105s-80.7,16.7-105-17.1s-16.7-80.7,17.1-105c29.9-21.6,71.1-18.2,97.2,7.8l-19,21
	C264.3,357.7,264.5,361.5,266.9,363.8C266.9,363.8,266.9,363.8,266.9,363.8L266.9,363.8z M319.6,392h64.7c5.9,0,10.7,4.8,10.7,10.7
	s-4.8,10.7-10.7,10.7h-68.5C317.9,406.5,319.2,399.3,319.6,392z M395,436.2c0,5.9-4.8,10.7-10.7,10.7h-88c6-6.4,10.9-13.6,14.7-21.5
	h73.2C390.2,425.5,395,430.3,395,436.2z M395,469.7c0,5.9-4.8,10.7-10.7,10.7h-96.8c-5.9,0-10.7-4.8-10.7-10.7s4.8-10.7,10.7-10.7
	h96.8C390.2,459,395,463.8,395,469.7z M168.4,328.3V322h6.5C172.6,324,170.4,326.1,168.4,328.3L168.4,328.3z M491,500H131.3
	c-5,0-9-4-9-9v-41H170c0.4,0,0.9-0.1,1.3-0.2c24.7,24.2,61.3,31.6,93.4,18.7c0,0.4,0,0.8,0,1.1c0,12.6,10.2,22.7,22.7,22.7h96.8
	c12.6,0,22.7-10.2,22.7-22.7c0-6.4-2.7-12.5-7.4-16.8c9.2-8.5,9.9-22.8,1.4-32.1c-0.4-0.5-0.9-1-1.4-1.4c9.3-8.5,9.9-22.9,1.4-32.1
	c-4.3-4.7-10.4-7.4-16.8-7.4h-64.9c-1.4-16.6-7.6-32.4-17.7-45.5l14.3-15.8l39.9,27.3c2.5,1.7,5.8,1.3,7.9-0.9l34.1-37.9v5
	c0,3.3,2.7,6,6,6s6-2.7,6-6v-20.5c0-3.3-2.7-6-6-6h-20.5c-3.3,0-6,2.7-6,6s2.7,6,6,6h6.9l-31.9,35.5l-39.8-27.3
	c-2.5-1.7-5.8-1.3-7.8,0.9l-17,18.7c-15.7-15.6-36.8-24.6-59-25.1V143.1c0-9.8-7.9-17.7-17.7-17.7h-94.6V21c0-5,4-9,9-9h251.4v77.9
	C331.4,71.2,274.7,97.6,256,149s7.7,108.1,59.1,126.8c51.3,18.7,108.1-7.7,126.8-59.1c10.6-29.1,7-61.4-9.8-87.4h68V491
	C500,496,496,500,491,500L491,500z M38.8,231.3h157c3.3,0,6-2.7,6-6v-61c0-3.3-2.7-6-6-6h-157c-3.3,0-6,2.7-6,6v61
	C32.8,228.6,35.5,231.3,38.8,231.3z M44.8,170.3h145v49h-145V170.3z M72.3,371.7H38.8c-3.3,0-6,2.7-6,6v33.4c0,3.3,2.7,6,6,6h33.4
	c3.3,0,6-2.7,6-6v-33.4C78.3,374.4,75.6,371.7,72.3,371.7z M66.3,405.2H44.8v-21.4h21.4V405.2z M72.3,248.2H38.8c-3.3,0-6,2.7-6,6
	l0,0v33.4c0,3.3,2.7,6,6,6h33.4c3.3,0,6-2.7,6-6v-33.4C78.3,250.9,75.6,248.2,72.3,248.2L72.3,248.2z M66.3,281.6H44.8v-21.4h21.4
	V281.6z M72.3,310H38.8c-3.3,0-6,2.7-6,6v33.4c0,3.3,2.7,6,6,6h33.4c3.3,0,6-2.7,6-6V316C78.3,312.7,75.6,310,72.3,310
	C72.3,310,72.3,310,72.3,310z M66.3,343.4H44.8V322h21.4V343.4z M134,371.7h-33.4c-3.3,0-6,2.7-6,6v33.4c0,3.3,2.7,6,6,6H134
	c3.3,0,6-2.7,6-6v-33.4C140,374.4,137.3,371.7,134,371.7z M128,405.2h-21.4v-21.4H128V405.2z M134,248.2h-33.4c-3.3,0-6,2.7-6,6
	v33.4c0,3.3,2.7,6,6,6H134c3.3,0,6-2.7,6-6v-33.4C140,250.9,137.3,248.2,134,248.2L134,248.2z M128,281.6h-21.4v-21.4H128V281.6z
	 M134,310h-33.4c-3.3,0-6,2.7-6,6v33.4c0,3.3,2.7,6,6,6H134c3.3,0,6-2.7,6-6V316C140,312.7,137.3,310,134,310
	C134,310,134,310,134,310z M128,343.4h-21.4V322H128V343.4z M195.8,248.2h-33.4c-3.3,0-6,2.7-6,6v33.4c0,3.3,2.7,6,6,6h33.4
	c3.3,0,6-2.7,6-6v-33.4C201.8,250.9,199.1,248.2,195.8,248.2L195.8,248.2z M189.8,281.6h-21.4v-21.4h21.4V281.6z M251.4,364.5
	c0,3.3,2.7,6,6,6c3.3,0,6-2.7,6-6c0-14.1-10.7-25.9-25-28.5v-8.7c0-3.3-2.7-6-6-6s-6,2.7-6,6v8.7c-14.2,2.6-25,14.4-25,28.5
	s10.8,25.9,25,28.5v33.8c-7.5-2.3-13-8.6-13-16.2c0-3.3-2.7-6-6-6s-6,2.7-6,6c0,14.1,10.8,25.9,25,28.5v8.7c0,3.3,2.7,6,6,6
	s6-2.7,6-6v-8.7c14.2-2.6,25-14.4,25-28.5s-10.7-25.9-25-28.5v-33.7C245.9,350.6,251.4,357,251.4,364.5L251.4,364.5z M213.4,364.5
	c0-7.5,5.4-13.9,13-16.2v32.3C218.9,378.4,213.4,372,213.4,364.5L213.4,364.5z M251.4,410.6c0,7.5-5.4,13.9-13,16.2v-32.3
	C245.9,396.7,251.4,403.1,251.4,410.6L251.4,410.6z M355,124.7V114c0-3.3-2.7-6-6-6s-6,2.7-6,6v10.6c-16.2,2.7-28.5,15.9-28.5,31.8
	s12.3,29.1,28.5,31.8v40.4c-9.5-2.4-16.5-10.2-16.5-19.6c0-3.3-2.7-6-6-6s-6,2.7-6,6c0,15.9,12.3,29.1,28.5,31.8v10.6
	c0,3.3,2.7,6,6,6s6-2.7,6-6v-10.6c16.2-2.7,28.5-15.9,28.5-31.8S371.2,180,355,177.3v-40.4c9.5,2.4,16.5,10.3,16.5,19.6
	c0,3.3,2.7,6,6,6s6-2.7,6-6C383.5,140.6,371.2,127.3,355,124.7L355,124.7z M326.5,156.5c0-9.3,7-17.2,16.5-19.6v39.2
	C333.5,173.7,326.5,165.8,326.5,156.5z M371.5,209.1c0,9.3-7,17.2-16.5,19.6v-39.2C364.5,191.9,371.5,199.8,371.5,209.1z"/>
</svg>
