<?xml version="1.0" encoding="utf-8"?>
<!-- Generator: Adobe Illustrator 27.0.0, SVG Export Plug-In . SVG Version: 6.00 Build 0)  -->
<svg version="1.1" id="Layer_1" xmlns="http://www.w3.org/2000/svg" xmlns:xlink="http://www.w3.org/1999/xlink" x="0px" y="0px"
	 viewBox="0 0 512 512" style="enable-background:new 0 0 512 512;" xml:space="preserve">
<style type="text/css">
	.st0{fill-rule:evenodd;clip-rule:evenodd;fill:#04994E;}
</style>
<path class="st0" d="M141.5,65.5c-1.9-2-1.9-5.1,0-7.1c60.2-60.2,156.4-63,220-8.4L360,16.6c-0.1-2.8,2-5.1,4.8-5.2
	c2.7-0.1,5.1,2,5.2,4.8l1.9,46.6c-0.2,1.3-1.3,2.5-1.3,2.5c0,0,0,0,0,0.1c-0.5,0.3-1.4,1.5-3.4,1.5l-45.5,1.9
	c-2.7,0.1-5.1-2.1-5.2-4.8c-0.1-2.8,2-5.1,4.8-5.2l33.5-1.4C295.1,6.4,205,9.1,148.6,65.5C146.6,67.4,143.5,67.4,141.5,65.5
	L141.5,65.5z M370.5,446.5c2,2,2,5.1,0,7.1c-60.3,60.1-156.3,63.1-219.9,8.4l1.4,33.4c0.1,2.8-2.1,5.2-5,5.2c-2.6,0-4.9-2.1-5-4.8
	l-1.9-45.5c0-1.3,0.7-3.3,1.4-3.7c0,0,0-0.1,0-0.1c0.9-0.9,2.1-1.4,3.3-1.5l45.6-1.9c2.7-0.1,5.1,2,5.2,4.8c0.1,2.8-2,5.1-4.7,5.2
	l-33.6,1.4c59.6,51.1,149.8,48.4,206.2-8C365.3,444.5,368.5,444.5,370.5,446.5L370.5,446.5z M407.8,393.1v-48.6l66.1-27.8v48.6
	L407.8,393.1z M331.7,365.3v-48.6l66.1,27.8v48.6L331.7,365.3z M402.8,282.6l-63.1,26.5l63.1,26.6l63.2-26.6L402.8,282.6z
	 M480.8,304.5l-76.1-32c-1.2-0.5-2.6-0.5-3.9,0l-76.1,32c-1.8,0.8-3.1,2.6-3.1,4.6v59.5c0,2,1.2,3.8,3.1,4.6l76.1,32
	c1.2,0.5,2.6,0.5,3.9,0v0l76.1-32c1.8-0.8,3.1-2.6,3.1-4.6v-59.5C483.9,307.1,482.7,305.3,480.8,304.5z M407.8,220.1v-48.6
	l66.1-27.8v48.6L407.8,220.1z M331.7,192.4v-48.6l66.1,27.8v48.6L331.7,192.4z M402.8,109.6l-63.1,26.6l63.1,26.6l63.2-26.6
	L402.8,109.6z M480.8,131.6l-76.1-32c-1.2-0.5-2.6-0.5-3.9,0l-76.1,32c-1.8,0.8-3.1,2.6-3.1,4.6v59.5c0,2,1.2,3.8,3.1,4.6l76.1,32
	c1.2,0.5,2.6,0.5,3.9,0v0l76.1-32c1.8-0.8,3.1-2.6,3.1-4.6v-59.5C483.9,134.2,482.7,132.4,480.8,131.6L480.8,131.6z M136.6,304.7
	h43.3v7.2h-43.3V304.7z M136.1,321.9h44.2c5.3,0,9.5-4.3,9.5-9.5v-8.2c0-5.2-4.2-9.5-9.5-9.5h-44.2c-5.2,0-9.5,4.3-9.5,9.5v8.2
	C126.6,317.7,130.9,321.9,136.1,321.9z M119.1,293.4c2,1.9,2,5.1,0,7.1l-22.5,22.8c-2,2-5.1,2-7.1,0l-11-11
	c-4.7-4.7,2.4-11.7,7.1-7.1l7.5,7.5l19-19.2C114,291.5,117.2,291.5,119.1,293.4L119.1,293.4z M136.6,249.5h43.3v7.2h-43.3V249.5z
	 M136.1,266.7h44.2c5.3,0,9.5-4.3,9.5-9.5V249c0-5.2-4.2-9.5-9.5-9.5h-44.2c-5.2,0-9.5,4.3-9.5,9.5v8.2
	C126.6,262.5,130.9,266.7,136.1,266.7z M119.1,238.2c2,1.9,2,5.1,0,7.1L96.7,268c-2,2-5.1,2-7.1,0l-11-11c-4.7-4.7,2.4-11.7,7.1-7.1
	l7.5,7.5l19-19.2C114,236.3,117.2,236.2,119.1,238.2z M136.6,194.3h43.3v7.2h-43.3V194.3z M136.1,211.5h44.2c5.3,0,9.5-4.3,9.5-9.5
	v-8.2c0-5.2-4.2-9.5-9.5-9.5h-44.2c-5.2,0-9.5,4.3-9.5,9.5v8.2C126.6,207.2,130.9,211.5,136.1,211.5z M93.1,202.2l19-19.2
	c4.6-4.7,11.7,2.3,7.1,7l-22.5,22.8c-2,2-5.1,2-7.1,0l-11-11c-4.7-4.7,2.4-11.7,7.1-7.1L93.1,202.2z M38.1,384.2
	c0,6.3,5.1,11.4,11.4,11.4h168c6.3,0,11.4-5.1,11.4-11.4V122c0-6.3-5.1-11.4-11.4-11.4h-55.6v14.6h47.4c2.8,0,5,2.2,5,5V376
	c0,2.8-2.2,5-5,5H57.7c-2.8,0-5-2.2-5-5V130.2c0-2.8,2.2-5,5-5h47.4v-14.6H49.5c-6.3,0-11.4,5.1-11.4,11.4L38.1,384.2z M153.6,149.5
	h-40.2c-4.6,0-8.3-3.7-8.3-8.3v-6.1H62.7V371h141.6V135.2h-42.5v6.1C161.8,145.8,158.1,149.5,153.6,149.5L153.6,149.5z M115.1,94.7
	h36.7v44.9h-36.7V94.7z M238.9,384.2V122c0-11.8-9.6-21.4-21.4-21.4h-55.6v-7.7c0-4.6-3.7-8.3-8.3-8.3h-40.2c-4.6,0-8.3,3.7-8.3,8.3
	v7.7H49.5c-11.8,0-21.4,9.6-21.4,21.4v262.2c0,11.8,9.6,21.4,21.4,21.4h168C229.3,405.6,238.9,396,238.9,384.2L238.9,384.2z"/>
</svg>
